<svg xmlns="http://www.w3.org/2000/svg" width="128" height="128" viewBox="0 0 128 128"><path d="M64.535 6.813c-27.467 0-41.304 20.16-41.58 34.28-.214 10.874 1.01 11.438 1.766 18.12-2.666 7.422-8.998 15.53-10.72 25.55 2.778 1.085 7.223 2.222 11.483 2.524.315 5.99.557 17.988 2.1 22.426 3.657 1.097 12.67 2.222 20.202 1.866.288 1.688.362 8.363.326 10.42h44.326c-.1-5.26-.188-17.086-.188-26.686C92.248 79.842 114 75.654 114 48.83c0-22.35-17.283-42.017-49.465-42.017zm.383 13.883h6.7l2.904 8.234 4.62 1.943 6.724-3.47.888-.457 4.737 4.812-3.677 7.904 1.914 4.693 7.17 2.378.947.314v6.803L89.74 56.8l-1.914 4.693 3.415 6.83.452.903-4.738 4.812L79.17 70.3l-4.62 1.944-2.34 7.284-.312.962H65.2L62.3 72.258l-4.62-1.944-6.726 3.468-.888.46-4.735-4.814 3.676-7.906-1.913-4.69-7.172-2.378-.946-.314v-6.806l8.108-2.95 1.912-4.69-3.416-6.833-.45-.9 4.736-4.812 7.786 3.737 4.618-1.944 2.342-7.283.308-.96zm3.492 20.368c-5.18 0-9.38 4.266-9.38 9.528 0 5.263 4.2 9.53 9.38 9.53 5.18 0 9.38-4.267 9.38-9.53 0-5.262-4.2-9.528-9.38-9.528z" color="#000" overflow="visible" fill="#ff5722"/></svg>