<svg xmlns="http://www.w3.org/2000/svg" width="1600" height="900" viewBox="0 0 1599.9999 900.00002"><defs><filter id="c" color-interpolation-filters="sRGB"><feFlood flood-opacity=".498" flood-color="#000" result="flood"/><feComposite in="flood" in2="SourceGraphic" operator="in" result="composite1"/><feGaussianBlur in="composite1" stdDeviation="3" result="blur"/><feOffset dx="3" dy="3" result="offset"/><feComposite in="SourceGraphic" in2="offset" result="fbSourceGraphic"/><feColorMatrix result="fbSourceGraphicAlpha" in="fbSourceGraphic" values="0 0 0 -1 0 0 0 0 -1 0 0 0 0 -1 0 0 0 0 1 0"/><feFlood flood-opacity=".498" flood-color="#000" result="flood"/><feComposite in2="fbSourceGraphic" in="flood" operator="in" result="composite1"/><feGaussianBlur in="composite1" stdDeviation="10" result="blur"/><feOffset dx="-5" dy="-5" result="offset"/><feComposite in2="offset" in="fbSourceGraphic" result="composite2"/></filter><clipPath id="g"><path color="#000" overflow="visible" fill="#f9ce1d" stroke-width="8" stroke-linecap="square" stroke-linejoin="round" enable-background="accumulate" d="M176.427-397.34l1131.37-1131.37 636.397 636.396-1131.37 1131.37z"/></clipPath><clipPath id="f"><path color="#000" overflow="visible" fill="#f9ce1d" stroke-width="8" stroke-linecap="square" stroke-linejoin="round" enable-background="accumulate" d="M107.736 107.736l1131.37-1131.37 636.397 636.395L744.133 744.133z"/></clipPath><clipPath id="e"><path color="#000" overflow="visible" fill="#f9ce1d" stroke-width="8" stroke-linecap="square" stroke-linejoin="round" enable-background="accumulate" d="M107.736 107.736l1131.37-1131.37 636.397 636.395L744.133 744.133z"/></clipPath><clipPath id="d"><path color="#000" overflow="visible" fill="#f9ce1d" stroke-width="8" stroke-linecap="square" stroke-linejoin="round" enable-background="accumulate" d="M107.736 107.736l1131.37-1131.37 636.397 636.395L744.133 744.133z"/></clipPath><clipPath id="b"><path color="#000" overflow="visible" fill="#f9ce1d" stroke-width="8" stroke-linecap="square" stroke-linejoin="round" enable-background="accumulate" d="M0 0h1600v900H0z"/></clipPath><clipPath id="a"><path color="#000" overflow="visible" fill="#f9ce1d" stroke-width="8" stroke-linecap="square" stroke-linejoin="round" enable-background="accumulate" d="M107.736 107.736l1131.37-1131.37 636.397 636.395L744.133 744.133z"/></clipPath></defs><g color="#000"><path transform="rotate(45 183.917 -76.18)" clip-path="url(#a)" overflow="visible" fill="#ff5722" enable-background="accumulate" d="M-16.565 300.002h2038.593v1158.98H-16.565z"/><path d="M0 0v271.906L628.096 900H1600V0H0z" clip-path="url(#b)" overflow="visible" fill="#607d8b" enable-background="accumulate" filter="url(#c)"/><path transform="rotate(45 183.917 -76.18)" clip-path="url(#d)" overflow="visible" fill="#455a64" enable-background="accumulate" filter="url(#c)" d="M232.026-1183.72h1600v900h-1600z"/><path transform="rotate(45 183.917 -76.18)" clip-path="url(#e)" overflow="visible" fill="#ff5722" enable-background="accumulate" filter="url(#c)" d="M1191.577-1073.805H3230.17V85.175H1191.577z"/><path transform="rotate(45 183.917 -76.18)" clip-path="url(#f)" overflow="visible" fill="#455a64" filter="url(#c)" enable-background="accumulate" d="M90.604-141.243h1600v364.62h-1600z"/><path transform="rotate(45 -391.42 -411.636)" clip-path="url(#g)" overflow="visible" fill="#607d8b" filter="url(#c)" enable-background="accumulate" d="M90.604-141.243h1600v364.62h-1600z"/></g></svg>