<?xml version="1.0" encoding="UTF-8" standalone="no"?>
<svg
   xmlns:dc="http://purl.org/dc/elements/1.1/"
   xmlns:cc="http://creativecommons.org/ns#"
   xmlns:rdf="http://www.w3.org/1999/02/22-rdf-syntax-ns#"
   xmlns:svg="http://www.w3.org/2000/svg"
   xmlns="http://www.w3.org/2000/svg"
   xmlns:sodipodi="http://sodipodi.sourceforge.net/DTD/sodipodi-0.dtd"
   xmlns:inkscape="http://www.inkscape.org/namespaces/inkscape"
   height="32"
   viewBox="0 0 32 32"
   width="32"
   id="svg2"
   version="1.1"
   inkscape:version="0.91 r13725"
   sodipodi:docname="default-gravatar.svg"
   style="fill:#000000"
   inkscape:export-filename="/home/jtebert/google-drive/Projects/Programming/html/jekyll-polymer/app/images/default-gravatar.png"
   inkscape:export-xdpi="90"
   inkscape:export-ydpi="90">
  <metadata
     id="metadata12">
    <rdf:RDF>
      <cc:Work
         rdf:about="">
        <dc:format>image/svg+xml</dc:format>
        <dc:type
           rdf:resource="http://purl.org/dc/dcmitype/StillImage" />
        <dc:title></dc:title>
      </cc:Work>
    </rdf:RDF>
  </metadata>
  <defs
     id="defs10" />
  <sodipodi:namedview
     pagecolor="#ffffff"
     bordercolor="#666666"
     borderopacity="1"
     objecttolerance="10"
     gridtolerance="10"
     guidetolerance="10"
     inkscape:pageopacity="0"
     inkscape:pageshadow="2"
     inkscape:window-width="1016"
     inkscape:window-height="757"
     id="namedview8"
     showgrid="false"
     inkscape:zoom="9.8333333"
     inkscape:cx="9.2931757"
     inkscape:cy="7.2367705"
     inkscape:window-x="391"
     inkscape:window-y="293"
     inkscape:window-maximized="0"
     inkscape:current-layer="svg2"
     inkscape:snap-page="true" />
  <path
     style="fill:#757575;fill-opacity:1;stroke-linecap:square"
     d="M 0 0 L 0 32 L 32 32 L 32 0 L 0 0 z M 16 8 C 18.21 8 20 9.79 20 12 C 20 14.21 18.21 16 16 16 C 13.79 16 12 14.21 12 12 C 12 9.79 13.79 8 16 8 z M 16 18 C 18.67 18 24 19.34 24 22 L 24 24 L 8 24 L 8 22 C 8 19.34 13.33 18 16 18 z "
     id="rect4159" />
  <path
     d="M 0,8 24,8 24,32 0,32 Z"
     id="path6"
     inkscape:connector-curvature="0"
     style="fill:none" />
</svg>
